<?xml version="1.0" standalone="no"?>
<!DOCTYPE svg PUBLIC "-//W3C//DTD SVG 20010904//EN"
 "http://www.w3.org/TR/2001/REC-SVG-20010904/DTD/svg10.dtd">
<svg version="1.0" xmlns="http://www.w3.org/2000/svg"
 width="512.000000pt" height="512.000000pt" viewBox="0 0 512.000000 512.000000"
 preserveAspectRatio="xMidYMid meet">

<g transform="translate(0.000000,512.000000) scale(0.100000,-0.100000)"
fill="#000000" stroke="none">
<path d="M2356 4913 c-65 -22 -147 -98 -177 -165 -21 -46 -24 -72 -27 -204
l-4 -150 -51 18 c-65 22 -167 23 -237 2 -39 -12 -66 -29 -105 -67 -89 -90 -85
-48 -85 -859 0 -389 -3 -708 -7 -708 -5 1 -57 84 -118 186 -81 138 -124 198
-163 235 -160 147 -420 101 -528 -93 -26 -48 -29 -62 -29 -148 0 -78 4 -102
22 -135 36 -68 877 -1464 944 -1569 120 -185 300 -351 480 -442 323 -162 702
-133 1012 78 79 54 184 154 237 228 25 33 47 60 50 60 4 0 17 -14 29 -31 l23
-31 -36 -30 c-63 -51 -62 -53 185 -433 122 -187 229 -349 238 -359 25 -29 112
-66 157 -66 131 0 239 140 205 267 -12 43 -437 707 -472 736 -29 23 -55 22
-103 -7 l-41 -24 -52 73 -53 73 16 44 c8 23 22 72 30 107 9 39 30 86 53 120
120 177 168 351 158 569 -8 172 -56 320 -147 453 l-40 59 0 553 c0 625 1 619
-72 702 -62 70 -122 95 -229 95 -50 0 -104 -6 -127 -14 l-40 -15 -4 207 c-3
184 -6 212 -24 252 -73 157 -254 228 -410 160 l-41 -18 -6 49 c-22 183 -226
303 -411 242z m173 -158 c16 -8 40 -28 55 -45 l26 -32 0 -780 0 -780 29 -29
c40 -39 82 -39 122 0 l29 29 0 645 0 644 23 34 c26 39 79 69 123 69 46 0 114
-40 135 -80 18 -33 19 -71 19 -678 l0 -643 25 -24 c33 -34 87 -34 120 0 l25
24 0 342 c0 390 1 397 74 430 52 24 100 24 153 0 75 -35 73 -20 73 -551 l0
-470 -51 35 c-299 205 -714 204 -1019 -4 l-57 -39 -29 17 c-16 10 -56 39 -89
65 -50 40 -65 46 -90 42 -39 -8 -65 -40 -65 -81 0 -33 32 -70 118 -135 l34
-25 -34 -45 c-19 -25 -47 -67 -63 -93 -25 -43 -31 -48 -54 -42 -14 3 -95 9
-178 12 l-153 6 0 804 c0 882 -2 846 60 878 43 22 137 20 178 -5 62 -38 62
-35 62 -615 l0 -526 25 -24 c18 -19 35 -25 65 -25 30 0 47 6 65 25 l25 24 0
773 c0 862 -4 817 69 865 40 27 107 31 150 8z m-1289 -1645 c51 -26 56 -33
266 -384 165 -275 183 -301 229 -331 66 -42 190 -174 252 -266 75 -112 108
-175 154 -290 63 -158 109 -232 212 -338 113 -115 235 -189 394 -238 81 -25
102 -27 253 -27 151 0 172 2 253 27 48 15 114 40 147 57 76 38 81 24 23 -64
-128 -191 -330 -324 -563 -372 -112 -22 -286 -15 -385 16 -196 62 -391 212
-527 405 -19 28 -245 400 -503 828 l-467 778 4 58 c5 70 31 111 90 140 54 26
117 27 168 1z m1975 -250 c258 -81 451 -284 517 -542 30 -118 23 -300 -16
-413 -40 -118 -98 -209 -190 -300 -95 -93 -163 -136 -279 -176 -276 -95 -573
-26 -777 181 -186 188 -257 435 -200 693 64 288 290 511 580 573 95 20 276 12
365 -16z m-1096 -466 c4 -5 0 -38 -9 -73 l-15 -63 -65 77 -64 78 73 -5 c40 -3
76 -9 80 -14z m1910 -1638 c100 -156 181 -290 181 -303 0 -13 -11 -29 -26 -40
-23 -15 -29 -15 -50 -2 -19 11 -262 372 -372 551 l-23 36 43 30 c33 23 46 28
54 19 6 -7 93 -138 193 -291z"/>
<path d="M2612 2618 c-20 -20 -13 -47 16 -61 38 -20 201 -72 297 -96 122 -30
285 -50 439 -54 125 -3 142 -1 158 15 14 14 16 23 9 37 -9 16 -29 19 -173 24
-234 9 -451 50 -641 121 -76 29 -88 31 -105 14z"/>
<path d="M2422 2378 c-7 -7 -12 -22 -12 -35 0 -18 13 -29 58 -52 125 -63 245
-174 330 -304 47 -73 64 -86 87 -67 26 22 17 53 -41 138 -70 103 -187 213
-300 280 -93 55 -103 59 -122 40z"/>
</g>
</svg>
